<svg width="81" height="36" viewBox="0 0 81 36" fill="none" xmlns="http://www.w3.org/2000/svg">
<path d="M31.795 20.246H25.845L24.672 23H22.394L27.749 11.1H29.925L35.297 23H32.985L31.795 20.246ZM31.064 18.512L28.82 13.31L26.593 18.512H31.064ZM41.6384 13.82C42.5224 13.82 43.3101 14.0127 44.0014 14.398C44.7041 14.7833 45.2537 15.3273 45.6504 16.03C46.0471 16.7327 46.2454 17.543 46.2454 18.461C46.2454 19.379 46.0471 20.195 45.6504 20.909C45.2537 21.6117 44.7041 22.1557 44.0014 22.541C43.3101 22.9263 42.5224 23.119 41.6384 23.119C40.4144 23.119 39.4454 22.711 38.7314 21.895V26.298H36.6064V13.922H38.6294V15.112C38.9807 14.6813 39.4114 14.3583 39.9214 14.143C40.4427 13.9277 41.0151 13.82 41.6384 13.82ZM41.4004 21.3C42.1824 21.3 42.8227 21.0393 43.3214 20.518C43.8314 19.9967 44.0864 19.311 44.0864 18.461C44.0864 17.611 43.8314 16.9253 43.3214 16.404C42.8227 15.8827 42.1824 15.622 41.4004 15.622C40.8904 15.622 40.4314 15.741 40.0234 15.979C39.6154 16.2057 39.2924 16.5343 39.0544 16.965C38.8164 17.3957 38.6974 17.8943 38.6974 18.461C38.6974 19.0277 38.8164 19.5263 39.0544 19.957C39.2924 20.3877 39.6154 20.722 40.0234 20.96C40.4314 21.1867 40.8904 21.3 41.4004 21.3ZM53.2927 13.82C54.1767 13.82 54.9644 14.0127 55.6557 14.398C56.3584 14.7833 56.908 15.3273 57.3047 16.03C57.7014 16.7327 57.8997 17.543 57.8997 18.461C57.8997 19.379 57.7014 20.195 57.3047 20.909C56.908 21.6117 56.3584 22.1557 55.6557 22.541C54.9644 22.9263 54.1767 23.119 53.2927 23.119C52.0687 23.119 51.0997 22.711 50.3857 21.895V26.298H48.2607V13.922H50.2837V15.112C50.635 14.6813 51.0657 14.3583 51.5757 14.143C52.097 13.9277 52.6694 13.82 53.2927 13.82ZM53.0547 21.3C53.8367 21.3 54.477 21.0393 54.9757 20.518C55.4857 19.9967 55.7407 19.311 55.7407 18.461C55.7407 17.611 55.4857 16.9253 54.9757 16.404C54.477 15.8827 53.8367 15.622 53.0547 15.622C52.5447 15.622 52.0857 15.741 51.6777 15.979C51.2697 16.2057 50.9467 16.5343 50.7087 16.965C50.4707 17.3957 50.3517 17.8943 50.3517 18.461C50.3517 19.0277 50.4707 19.5263 50.7087 19.957C50.9467 20.3877 51.2697 20.722 51.6777 20.96C52.0857 21.1867 52.5447 21.3 53.0547 21.3Z" fill="#8E97A6"/>
<path d="M18 2H63V-2H18V2ZM63 34H18V38H63V34ZM18 34C9.16344 34 2 26.8366 2 18H-2C-2 29.0457 6.9543 38 18 38V34ZM79 18C79 26.8366 71.8366 34 63 34V38C74.0457 38 83 29.0457 83 18H79ZM63 2C71.8366 2 79 9.16344 79 18H83C83 6.95431 74.0457 -2 63 -2V2ZM18 -2C6.95431 -2 -2 6.95431 -2 18H2C2 9.16344 9.16344 2 18 2V-2Z" fill="#8E97A6"/>
</svg>
