<svg width="187" height="57" viewBox="0 0 187 57" fill="none" xmlns="http://www.w3.org/2000/svg">
<path d="M1 1C1.65967 1.00681 2.32066 1.02044 2.98033 1.02044C11.5441 1.0218 20.1092 1.02044 28.673 1.02044H29.494V2.21952C29.1979 2.23451 28.9004 2.26176 28.603 2.26176C20.1053 2.26449 11.6063 2.26313 3.10856 2.26449C2.50926 2.26449 2.20917 2.56789 2.20829 3.1747C2.20829 9.02024 2.20829 14.8671 2.20829 20.7127V21.5861H27.8746V22.7606H2.26249V43.9763H3.12839C11.7808 43.9763 20.4331 43.9749 29.0855 43.9831C29.3697 43.9831 29.6539 44.0866 30.0519 44.1643C31.5973 42.1054 33.2378 39.9198 34.8784 37.7328C36.9909 34.9177 39.0942 32.0944 41.2253 29.2943C41.5425 28.8773 41.5399 28.6184 41.2292 28.1974C37.7762 23.5278 34.347 18.8405 30.9098 14.1572C30.7657 13.961 30.6256 13.7607 30.4762 13.5495C31.5113 13.2266 31.826 13.3247 32.4076 14.1286C35.5606 18.4916 38.7122 22.856 41.8664 27.2177C41.996 27.3976 42.1361 27.5706 42.3146 27.8063C42.493 27.5815 42.649 27.3989 42.7918 27.2068C46.0055 22.8615 49.2378 18.5312 52.4092 14.1559C52.9248 13.4459 53.4615 13.3274 54.3063 13.48C54.1357 13.7321 54.0128 13.9297 53.8766 14.115C50.4302 18.79 46.9917 23.4706 43.5215 28.1265C43.1487 28.6266 43.1884 28.9155 43.5453 29.3869C47.3553 34.4027 51.1401 39.4388 54.9316 44.4695C55.0756 44.6603 55.2145 44.8565 55.4009 45.1127C54.5363 45.2734 53.9599 45.1808 53.4073 44.4327C49.9027 39.6895 46.3387 34.994 42.7931 30.2822C42.6596 30.105 42.5168 29.9361 42.3291 29.7003C42.152 29.9129 41.9933 30.0846 41.8532 30.2713C38.2786 35.0444 34.7013 39.8163 31.1425 44.6017C30.8305 45.02 30.5146 45.1917 29.995 45.1903C20.33 45.1781 10.665 45.1849 1 45.189V1H1Z" fill="#D7DBE2" stroke="#D7DBE2"/>
<path d="M59.1187 36.4726V55.9999H57.9897V13.4692H59.0777V22.1544L59.2562 22.2062C59.3461 21.9596 59.432 21.7116 59.5259 21.4663C61.3608 16.6632 64.6089 13.5619 69.6721 12.8424C75.8127 11.9704 80.8957 14.9095 83.2145 20.8191C85.5993 26.899 85.4645 33.0238 82.5984 38.9225C78.0045 48.3789 66.1688 47.1689 61.9041 41.6572C60.8756 40.3287 60.056 38.9034 59.5365 37.2942C59.4466 37.0162 59.3606 36.7383 59.2721 36.4603C59.2205 36.4644 59.169 36.4685 59.1174 36.4712L59.1187 36.4726ZM83.615 29.8081C83.6111 26.0773 83.073 23.0714 81.6796 20.2686C80.3577 17.6088 78.4395 15.5663 75.6527 14.5811C70.6001 12.7947 64.4093 14.2214 61.2868 20.2223C58.2806 26.001 58.2502 32.0659 60.8254 37.9769C62.8282 42.5743 66.654 44.6454 71.5017 44.7149C76.1723 44.7817 79.4468 42.4489 81.6003 38.3189C83.0809 35.4806 83.5912 32.3916 83.615 29.8068V29.8081Z" fill="#D7DBE2" stroke="#D7DBE2"/>
<path d="M131.05 29.5436H105.19C105.248 30.4293 105.277 31.2564 105.36 32.0766C105.593 34.3658 106.064 36.595 107.103 38.658C108.692 41.811 111.156 43.7991 114.568 44.4517C117.029 44.9232 119.488 44.8442 121.882 44.0607C126.166 42.6599 128.521 39.5137 129.398 35.0757C129.524 34.4389 129.955 34.1705 130.691 34.2704C130.641 34.637 130.606 35.0089 130.536 35.3741C129.334 41.5535 124.902 45.4519 118.632 45.8252C116.688 45.9411 114.753 45.8607 112.876 45.2652C109.763 44.2773 107.399 42.2811 106.074 39.2439C103.414 33.1476 103.12 26.9138 105.83 20.7535C107.758 16.3673 111.07 13.5576 115.785 12.8395C122.345 11.8407 127.92 15.4203 130.052 21.8871C130.81 24.1831 131.122 26.554 131.098 28.974C131.097 29.128 131.073 29.2833 131.05 29.5422V29.5436ZM105.089 28.2845H129.891C129.916 26.3905 129.656 24.5892 129.139 22.8287C126.86 15.0537 118.957 11.545 112.113 15.3167C108.764 17.163 106.91 20.2439 105.909 23.9011C105.526 25.3018 105.366 26.7666 105.089 28.2845Z" fill="#D7DBE2" stroke="#D7DBE2"/>
<path d="M162.343 34.3618H163.408C163.49 35.2189 163.531 36.0528 163.657 36.8731C164.213 40.5208 166.215 42.9339 169.649 43.9804C173.162 45.05 176.701 45.0977 180.137 43.6738C181.152 43.2528 182.102 42.5538 182.937 41.8098C185.434 39.5819 185.867 34.261 181.841 31.9446C180.664 31.2674 179.366 30.7564 178.066 30.3735C175.339 29.5696 172.564 28.9373 169.83 28.1593C168.756 27.8527 167.705 27.4099 166.697 26.9112C165.147 26.144 164.16 24.8618 163.755 23.1163C162.712 18.632 164.725 14.8985 169.155 13.4242C172.654 12.2592 176.2 12.3818 179.655 13.6804C182.941 14.9162 184.663 17.4479 185.025 20.9934C185.074 21.4662 185.094 21.9418 185.122 22.416C185.127 22.5018 185.103 22.5904 185.086 22.7348H184.007C183.96 22.2266 183.923 21.7142 183.861 21.2046C183.45 17.8622 181.712 15.6071 178.589 14.5797C175.865 13.6845 173.075 13.6422 170.308 14.3072C169.343 14.5388 168.39 14.9994 167.543 15.5417C165.024 17.155 164.038 20.1895 165.011 23.0795C165.564 24.7269 166.766 25.7516 168.302 26.2803C170.386 26.9984 172.513 27.5802 174.628 28.1961C176.3 28.6839 177.991 29.1077 179.655 29.6173C180.453 29.8612 181.227 30.2018 181.983 30.5643C187.365 33.1396 186.79 40.1965 183.477 43.0484C181.946 44.366 180.197 45.1386 178.259 45.5079C175.179 46.0938 172.121 45.9957 169.113 45.0787C165.127 43.8632 162.989 41.0304 162.458 36.8472C162.372 36.1755 162.351 35.4942 162.307 34.8156C162.299 34.6848 162.327 34.5512 162.343 34.3618Z" fill="#D7DBE2" stroke="#D7DBE2"/>
<path d="M157.281 22.7471H156.158C156.064 21.9745 156.014 21.2305 155.879 20.5029C155.333 17.5433 153.628 15.5717 150.881 14.6301C148.081 13.6695 145.203 13.6313 142.345 14.3276C141.442 14.547 140.556 14.983 139.758 15.4817C137.211 17.0746 136.184 20.0601 137.11 22.9815C137.642 24.667 138.845 25.7257 140.403 26.268C142.484 26.9929 144.613 27.572 146.728 28.1879C148.401 28.6758 150.093 29.0941 151.756 29.6078C152.594 29.8667 153.426 30.2005 154.2 30.6174C158.55 32.9584 159.501 38.6854 156.19 42.4393C154.904 43.8973 153.278 44.7762 151.455 45.2572C148.122 46.136 144.776 46.0911 141.467 45.1468C137.393 43.9859 135.149 41.1599 134.593 36.8799C134.513 36.2749 134.486 35.6618 134.443 35.0527C134.429 34.851 134.441 34.648 134.441 34.3878H135.584C135.599 34.7379 135.612 35.1127 135.632 35.4874C135.893 40.3014 138.318 43.2787 142.895 44.2884C146.168 45.0092 149.427 44.9751 152.549 43.5744C154.728 42.596 156.354 41.044 156.824 38.5096C157.336 35.7517 156.412 33.4121 154.056 32.0087C152.855 31.2919 151.51 30.7673 150.171 30.3695C147.466 29.5655 144.712 28.9428 141.998 28.1716C140.924 27.865 139.873 27.4249 138.863 26.9303C137.237 26.1331 136.244 24.7842 135.85 22.9542C134.987 18.9441 136.511 15.539 140.166 13.9134C144.365 12.0466 148.633 12.1992 152.778 14.1505C155.528 15.4463 156.806 17.884 157.148 20.894C157.217 21.4935 157.236 22.0985 157.282 22.7498L157.281 22.7471Z" fill="#D7DBE2" stroke="#D7DBE2"/>
<path d="M91.4143 45.1536H90.3091V13.4638H91.3891V21.0957L91.5451 21.1842C93.3166 14.9285 97.7413 12.7484 103.639 12.6598V13.8385C102.82 13.878 102.003 13.8521 101.207 13.9666C96.6995 14.6165 93.8189 17.3076 92.3026 21.6352C91.639 23.5292 91.4116 25.5064 91.4143 27.5148C91.4182 33.0892 91.4156 38.6622 91.4156 44.2366C91.4156 44.5241 91.4156 44.8116 91.4156 45.1536H91.4143Z" fill="#D7DBE2" stroke="#D7DBE2"/>
</svg>
