<svg width="100" height="36" viewBox="0 0 100 36" fill="none" xmlns="http://www.w3.org/2000/svg">
<path d="M35.1191 13.82C36.2638 13.82 37.1704 14.1543 37.8391 14.823C38.5078 15.4803 38.8421 16.472 38.8421 17.798V23H36.7171V18.07C36.7171 17.2767 36.5414 16.6817 36.1901 16.285C35.8388 15.877 35.3344 15.673 34.6771 15.673C33.9631 15.673 33.3908 15.911 32.9601 16.387C32.5294 16.8517 32.3141 17.5203 32.3141 18.393V23H30.1891V18.07C30.1891 17.2767 30.0134 16.6817 29.6621 16.285C29.3108 15.877 28.8064 15.673 28.1491 15.673C27.4238 15.673 26.8458 15.9053 26.4151 16.37C25.9958 16.8347 25.7861 17.509 25.7861 18.393V23H23.6611V13.922H25.6841V15.078C26.0241 14.67 26.4491 14.3583 26.9591 14.143C27.4691 13.9277 28.0358 13.82 28.6591 13.82C29.3391 13.82 29.9398 13.9503 30.4611 14.211C30.9938 14.4603 31.4131 14.8343 31.7191 15.333C32.0931 14.857 32.5748 14.4887 33.1641 14.228C33.7534 13.956 34.4051 13.82 35.1191 13.82ZM50.1746 18.512C50.1746 18.6593 50.1632 18.869 50.1406 19.141H43.0176C43.1422 19.8097 43.4652 20.3423 43.9866 20.739C44.5192 21.1243 45.1766 21.317 45.9586 21.317C46.9559 21.317 47.7776 20.9883 48.4236 20.331L49.5626 21.64C49.1546 22.1273 48.6389 22.4957 48.0156 22.745C47.3922 22.9943 46.6896 23.119 45.9076 23.119C44.9102 23.119 44.0319 22.9207 43.2726 22.524C42.5132 22.1273 41.9239 21.5777 41.5046 20.875C41.0966 20.161 40.8926 19.3563 40.8926 18.461C40.8926 17.577 41.0909 16.7837 41.4876 16.081C41.8956 15.367 42.4566 14.8117 43.1706 14.415C43.8846 14.0183 44.6892 13.82 45.5846 13.82C46.4686 13.82 47.2562 14.0183 47.9476 14.415C48.6502 14.8003 49.1942 15.35 49.5796 16.064C49.9762 16.7667 50.1746 17.5827 50.1746 18.512ZM45.5846 15.52C44.9046 15.52 44.3266 15.724 43.8506 16.132C43.3859 16.5287 43.1026 17.0613 43.0006 17.73H48.1516C48.0609 17.0727 47.7832 16.54 47.3186 16.132C46.8539 15.724 46.2759 15.52 45.5846 15.52ZM61.1068 10.386V23H59.0668V21.827C58.7154 22.2577 58.2791 22.5807 57.7578 22.796C57.2478 23.0113 56.6811 23.119 56.0578 23.119C55.1851 23.119 54.3974 22.9263 53.6948 22.541C53.0034 22.1557 52.4594 21.6117 52.0628 20.909C51.6661 20.195 51.4678 19.379 51.4678 18.461C51.4678 17.543 51.6661 16.7327 52.0628 16.03C52.4594 15.3273 53.0034 14.7833 53.6948 14.398C54.3974 14.0127 55.1851 13.82 56.0578 13.82C56.6584 13.82 57.2081 13.922 57.7068 14.126C58.2054 14.33 58.6304 14.636 58.9818 15.044V10.386H61.1068ZM56.3128 21.3C56.8228 21.3 57.2818 21.1867 57.6898 20.96C58.0978 20.722 58.4208 20.3877 58.6588 19.957C58.8968 19.5263 59.0158 19.0277 59.0158 18.461C59.0158 17.8943 58.8968 17.3957 58.6588 16.965C58.4208 16.5343 58.0978 16.2057 57.6898 15.979C57.2818 15.741 56.8228 15.622 56.3128 15.622C55.8028 15.622 55.3438 15.741 54.9358 15.979C54.5278 16.2057 54.2048 16.5343 53.9668 16.965C53.7288 17.3957 53.6098 17.8943 53.6098 18.461C53.6098 19.0277 53.7288 19.5263 53.9668 19.957C54.2048 20.3877 54.5278 20.722 54.9358 20.96C55.3438 21.1867 55.8028 21.3 56.3128 21.3ZM63.8867 13.922H66.0117V23H63.8867V13.922ZM64.9577 12.426C64.5723 12.426 64.2493 12.307 63.9887 12.069C63.728 11.8197 63.5977 11.5137 63.5977 11.151C63.5977 10.7883 63.728 10.488 63.9887 10.25C64.2493 10.0007 64.5723 9.876 64.9577 9.876C65.343 9.876 65.666 9.995 65.9267 10.233C66.1873 10.4597 66.3177 10.7487 66.3177 11.1C66.3177 11.474 66.1873 11.7913 65.9267 12.052C65.6773 12.3013 65.3543 12.426 64.9577 12.426ZM72.2687 13.82C73.6061 13.82 74.6261 14.143 75.3287 14.789C76.0427 15.4237 76.3997 16.387 76.3997 17.679V23H74.3937V21.895C74.1331 22.2917 73.7591 22.5977 73.2717 22.813C72.7957 23.017 72.2177 23.119 71.5377 23.119C70.8577 23.119 70.2627 23.0057 69.7527 22.779C69.2427 22.541 68.8461 22.218 68.5627 21.81C68.2907 21.3907 68.1547 20.9203 68.1547 20.399C68.1547 19.583 68.4551 18.9313 69.0557 18.444C69.6677 17.9453 70.6254 17.696 71.9287 17.696H74.2747V17.56C74.2747 16.9253 74.0821 16.438 73.6967 16.098C73.3227 15.758 72.7617 15.588 72.0137 15.588C71.5037 15.588 70.9994 15.6673 70.5007 15.826C70.0134 15.9847 69.5997 16.2057 69.2597 16.489L68.4267 14.942C68.9027 14.5793 69.4751 14.3017 70.1437 14.109C70.8124 13.9163 71.5207 13.82 72.2687 13.82ZM71.9797 21.572C72.5124 21.572 72.9827 21.453 73.3907 21.215C73.8101 20.9657 74.1047 20.6143 74.2747 20.161V19.107H72.0817C70.8577 19.107 70.2457 19.5093 70.2457 20.314C70.2457 20.6993 70.3987 21.0053 70.7047 21.232C71.0107 21.4587 71.4357 21.572 71.9797 21.572Z" fill="#8E97A6"/>
<path d="M18 2H82V-2H18V2ZM82 34H18V38H82V34ZM18 34C9.16344 34 2 26.8366 2 18H-2C-2 29.0457 6.95431 38 18 38V34ZM98 18C98 26.8366 90.8366 34 82 34V38C93.0457 38 102 29.0457 102 18H98ZM82 2C90.8366 2 98 9.16344 98 18H102C102 6.95431 93.0457 -2 82 -2V2ZM18 -2C6.95431 -2 -2 6.95431 -2 18H2C2 9.16344 9.16344 2 18 2V-2Z" fill="#8E97A6"/>
</svg>
