<svg width="185" height="79" viewBox="0 0 185 79" fill="none" xmlns="http://www.w3.org/2000/svg">
<g clip-path="url(#clip0_35_2666)">
<path d="M52.5341 79C54.1274 77.2911 55.7207 75.5823 57.3139 73.8715C57.2363 73.7659 57.1588 73.6603 57.0812 73.5547C53.5559 74.8712 49.991 76.0274 45.9321 76.4971C49.9247 73.7527 52.7309 70.3746 54.4548 66.1515C56.1748 61.9416 56.6214 57.6166 55.5863 53.152C53.2229 62.7752 47.5103 69.0845 37.6725 71.3139C32.1112 72.5757 25.5111 70.8197 22.283 68.5337C23.3086 68.2621 24.2187 68.0207 25.233 67.7528C24.5839 67.0606 23.9822 66.5136 23.4921 65.8818C21.738 63.6221 20.7711 61.089 20.9906 58.1919C21.2612 54.6176 24.5726 52.0222 27.7724 52.8578C29.4735 53.3029 29.9106 54.1989 29.2142 55.8002C29.0515 56.1737 28.762 56.5679 28.7942 56.93C28.8698 57.8052 28.8604 58.8256 29.3164 59.5009C30.4953 61.2475 32.3289 62.0151 34.4254 62.0566C34.7528 62.0623 35.224 61.7888 35.3981 61.504C36.2912 60.0384 37.1105 58.5276 38.0037 56.947C38.0623 58.1447 38.121 59.35 38.1872 60.7137C38.4729 60.5251 38.7492 60.4289 38.8892 60.2346C39.8562 58.8935 40.8553 57.5713 41.7106 56.1605C42.0493 55.6003 42.3539 55.3853 42.9556 55.4984C44.3199 55.7549 45.408 56.4377 46.2197 57.56C46.3465 57.7354 46.4657 57.9184 46.5944 58.0938C46.6058 58.1108 46.6512 58.1032 46.8442 58.1259C46.6625 57.1224 46.5395 56.151 46.3106 55.2042C42.8081 40.7468 28.5141 31.8101 13.8834 34.9393C13.5295 35.0147 13.1624 35.2976 12.924 35.5843C12.4453 36.1634 12.0744 36.8292 11.6127 37.4233C11.3402 37.7742 10.9788 38.0571 10.6571 38.3702L10.4187 38.2721V34.7054L10.1878 34.6318C9.58987 35.3731 8.99382 36.1143 8.39587 36.8556L8.04581 36.7519C8.04581 36.0842 8.00418 35.4127 8.05905 34.7488C8.10257 34.2206 7.93416 33.9698 7.42705 33.7812C5.49886 33.0644 4.25566 31.7026 3.6842 29.7184C3.60095 29.426 3.32846 29.1676 3.09383 28.945C2.89325 28.7545 2.60942 28.6546 2.38045 28.4905C-0.28192 26.5723 -0.68875 24.5842 1.03508 21.7795C1.99065 20.2234 3.37766 19.2502 5.20556 18.988C9.37605 18.3863 12.9751 16.6869 15.7888 13.5144C19.7871 9.00643 24.8924 6.78453 30.7943 6.00932C37.1124 5.18129 43.3057 5.64718 49.3968 7.44657C51.0222 7.92755 52.5814 8.6292 54.1728 9.22523C54.4302 9.32142 54.6989 9.39309 55.0641 9.50815C55.0319 9.23277 55.0319 9.05359 54.9884 8.88572C54.2144 5.93199 55.1681 3.55542 57.7264 1.92767C58.489 1.44292 59.1645 0.824261 59.9006 0.296136C60.1106 0.145243 60.3926 0.0207563 60.6443 0.016984C62.6614 -0.00564996 64.6766 -0.0113084 66.6937 0.0207563C67.0003 0.0264148 67.3749 0.173535 67.5982 0.384786C75.1615 7.54654 73.3014 20.529 63.9557 25.3198C62.2224 26.2082 60.2242 26.5855 58.3471 27.1947C58.1711 27.2513 57.9857 27.2796 57.8059 27.3267C57.7927 27.3305 57.7927 27.3795 57.7454 27.5738C62.6425 28.8281 67.2084 28.1642 71.3903 25.3463C75.6024 22.5095 77.8901 18.4674 78.6773 13.3389C79.6215 14.4895 80.6263 15.5967 81.4986 16.7982C87.1091 24.5163 90.5832 33.0418 91.0979 42.6273C91.5672 51.364 89.0902 59.2896 84.1912 66.5023C84.1061 66.6287 83.9944 66.74 83.7484 67.0323C83.809 63.4071 83.8658 59.9668 82.7815 56.6094C82.5658 57.5487 82.369 58.4918 82.1306 59.4254C80.2251 66.8701 76.4047 73.1567 70.6258 78.2587C70.3722 78.4832 70.1565 78.751 69.9238 78.9981H68.4119C69.5226 76.5159 70.7128 74.0677 71.7119 71.5421C72.3137 70.0257 72.6183 68.3922 73.0819 66.7192C72.7981 66.772 72.711 66.7626 72.6826 66.7984C72.5483 66.9682 72.4215 67.1455 72.308 67.3303C70.0827 70.9744 67.3276 74.1639 64.0238 76.8818C63.159 77.5929 62.2848 78.2927 61.4163 78.9981H52.5303L52.5341 79Z" fill="#D7DBE2"/>
<path d="M109.963 31.7007V36.2218C110.558 35.8106 110.976 35.524 111.392 35.2354C114.079 33.3756 116.972 32.4061 120.204 33.5397C122.422 34.3168 123.905 35.8333 123.96 38.3211C124.042 42.0501 124.064 45.7809 124.085 49.5098C124.093 51.032 124.132 51.1206 125.656 51.3903C125.904 51.4337 126.233 51.4054 126.379 51.5526C126.626 51.8034 126.761 52.1674 126.942 52.4824C126.683 52.6126 126.42 52.8616 126.163 52.8559C124.369 52.8125 122.577 52.6711 120.783 52.6541C119.559 52.6428 118.333 52.8069 117.105 52.8446C116.7 52.8559 116.104 53.1143 116.051 52.3127C116.003 51.5997 116.482 51.5903 116.969 51.5544C117.063 51.5469 117.158 51.5375 117.25 51.5243C119.052 51.2677 119.304 51.0452 119.269 49.2571C119.198 45.6866 119.173 42.1104 118.91 38.5512C118.736 36.1803 117.04 35.1543 114.692 35.639C113.035 35.9823 111.666 36.8575 110.438 37.9609C110.196 38.1797 110.024 38.6116 110.026 38.9436C110.041 42.2651 110.083 45.5866 110.155 48.9082C110.191 50.5491 110.378 50.766 111.975 51.3338C112.442 51.4997 112.874 51.6186 112.79 52.2674C112.7 52.9804 112.179 52.8653 111.723 52.8634C108.701 52.8559 105.679 52.8484 102.658 52.8087C102.415 52.805 102.177 52.5635 101.935 52.4315C102.111 52.1505 102.222 51.7393 102.474 51.6167C102.915 51.4036 103.441 51.3639 103.933 51.2602C104.714 51.0961 105.155 50.6491 105.153 49.8286C105.142 46.3807 105.127 42.9328 105.117 39.483C105.114 38.2249 104.497 37.4233 103.318 37.0197C103.079 36.9386 102.803 36.9027 102.616 36.7556C102.402 36.5877 102.139 36.3218 102.137 36.0955C102.135 35.9012 102.434 35.6032 102.661 35.524C103.67 35.1712 104.769 35.0166 105.702 34.5337C106.686 34.0245 107.504 33.204 108.419 32.5551C108.828 32.2647 109.299 32.061 109.963 31.6969V31.7007Z" fill="#D7DBE2"/>
<path d="M148.629 41.0617C146.378 41.0617 144.186 41.0768 141.995 41.058C139.855 41.0372 137.717 40.9882 135.577 40.9354C135.041 40.9222 134.723 41.09 134.744 41.671C134.869 45.0113 135.915 48.7761 140.396 49.8909C142.5 50.4152 144.512 49.8946 146.364 48.795C147.136 48.3373 147.883 48.4618 148.605 49.1684C147.367 50.6529 145.876 51.8506 144.069 52.5107C140.686 53.7443 137.223 53.9668 134.057 51.992C130.29 49.6438 129.134 46.0186 129.595 41.7502C130.218 35.9974 136.315 30.8085 143.747 33.8113C146.796 35.043 148.453 37.578 148.669 40.9278C148.675 41.0108 148.614 41.0994 148.627 41.0617H148.629ZM135.019 39.4962C137.732 39.4962 140.398 39.5038 143.064 39.4774C143.219 39.4774 143.509 39.1888 143.507 39.036C143.479 36.848 142.183 34.4847 139.45 34.3338C137.039 34.2018 134.95 36.6349 135.019 39.4962Z" fill="#D7DBE2"/>
<path d="M160.704 32.872C162.352 33.1908 164.013 33.5076 165.671 33.834C166.371 33.9716 166.736 34.3866 166.812 35.1165C166.925 36.2067 167.141 37.2875 167.224 38.3796C167.249 38.6946 167.043 39.2246 166.804 39.3227C166.299 39.5283 165.731 39.583 165.347 38.9153C164.817 37.9948 164.274 37.0555 163.584 36.2577C162.191 34.6488 160.391 34.2093 158.363 34.8544C157.231 35.2146 156.431 35.9446 156.325 37.1875C156.227 38.3419 156.936 39.0982 157.869 39.5641C158.673 39.964 159.582 40.1601 160.443 40.4449C162.051 40.9768 163.718 41.3805 165.253 42.0727C167.51 43.0912 168.587 44.951 168.441 47.4502C168.295 49.9738 166.952 51.7506 164.662 52.6088C161.035 53.9687 157.411 53.4632 153.899 52.0354C153.579 51.9053 153.28 51.4036 153.216 51.0339C153 49.7683 152.87 48.4875 152.76 47.2068C152.736 46.9258 152.938 46.375 153.021 46.3769C153.449 46.3901 154.017 46.4109 154.264 46.6787C154.745 47.1993 155.018 47.9028 155.421 48.5008C156.91 50.7019 158.87 52.0448 161.667 51.7732C162.781 51.6657 163.606 51.0471 164.216 50.1625C165.06 48.9383 164.77 47.4728 163.444 46.7919C162.477 46.2958 161.398 46.0035 160.35 45.6809C159.389 45.3848 158.397 45.1886 157.426 44.9208C154.79 44.1946 153.033 42.1482 152.947 39.7282C152.841 36.6915 154.242 34.4847 157.037 33.568C158.181 33.1927 159.423 33.1059 160.704 32.872Z" fill="#D7DBE2"/>
<path d="M174.914 42.8611C174.914 41.0429 174.886 39.2246 174.93 37.4063C174.947 36.6934 174.684 36.4368 174.002 36.4878C173.626 36.5161 173.236 36.5557 172.873 36.4859C172.587 36.4293 172.103 36.203 172.108 36.069C172.123 35.6918 172.339 35.3221 172.498 34.9581C172.526 34.894 172.659 34.8694 172.746 34.8336C175.219 33.8622 177.096 32.2156 178.33 29.873C178.621 29.3204 179.032 28.9526 179.575 29.2223C179.87 29.3675 180.076 29.9371 180.103 30.3295C180.167 31.265 180.111 32.2081 180.09 33.1493C180.061 34.3338 180.056 34.3319 181.287 34.3036C182.169 34.2828 183.055 34.3111 183.931 34.2338C184.711 34.1659 184.762 34.6695 184.743 35.1731C184.724 35.6862 184.921 36.4199 184.048 36.4538C183.076 36.4915 182.097 36.4821 181.125 36.4255C180.235 36.3746 179.84 36.6104 179.853 37.6138C179.893 40.7165 179.825 43.8193 179.804 46.922C179.802 47.2974 179.8 47.6765 179.836 48.0499C179.916 48.8949 179.935 49.838 180.83 50.2436C181.787 50.6755 182.769 50.4925 183.558 49.7739C184.173 49.2137 184.574 49.491 184.922 50.0229C185.017 50.1681 185.032 50.4888 184.936 50.6151C183.399 52.5862 181.305 53.1992 178.901 52.9879C177.043 52.8257 175.531 51.5563 175.109 49.6985C174.911 48.8233 174.901 47.8991 174.86 46.9956C174.827 46.309 174.886 45.6168 174.894 44.9283C174.901 44.238 174.894 43.5496 174.894 42.8592H174.914V42.8611Z" fill="#D7DBE2"/>
<path d="M53.3497 6.79961C52.8425 5.90368 52.7139 4.72294 53.0847 3.53843C53.4462 2.38599 53.9571 1.27881 54.4358 0.0660095H57.7661C56.7292 1.05813 55.4992 1.90124 54.7442 3.05369C54.0138 4.16841 53.7735 5.60001 53.3497 6.79961Z" fill="#D7DBE2"/>
</g>
<defs>
<clipPath id="clip0_35_2666">
<rect width="185" height="79" fill="white"/>
</clipPath>
</defs>
</svg>
