<svg width="145" height="89" viewBox="0 0 145 89" fill="none" xmlns="http://www.w3.org/2000/svg">
<g clip-path="url(#clip0_35_2618)">
<path d="M71.6691 89C71.1906 89 70.7153 88.8751 70.2957 88.632L65.9231 86.0402C65.2709 85.6756 65.5888 85.5442 65.8051 85.4686C66.677 85.1664 66.8508 85.0974 67.7817 84.5685C67.88 84.5127 68.0078 84.5357 68.1062 84.5948L71.4659 86.5921C71.5872 86.6611 71.7609 86.6611 71.8724 86.5921L84.9672 79.0169C85.0884 78.9479 85.1671 78.8067 85.1671 78.6621V63.5184C85.1671 63.3705 85.0884 63.2326 84.9639 63.157L71.8756 55.5884C71.7544 55.5161 71.5937 55.5161 71.4725 55.5884L58.3875 63.1603C58.2597 63.2326 58.181 63.3771 58.181 63.5184V78.6621C58.181 78.8067 58.2629 78.9446 58.3875 79.0136L61.9734 81.0897C63.9204 82.0654 65.1103 80.9156 65.1103 79.7626V64.8094C65.1103 64.5991 65.2807 64.4316 65.4905 64.4316H67.1523C67.3588 64.4316 67.5325 64.5991 67.5325 64.8094V79.7626C67.5325 82.3643 66.1165 83.859 63.6549 83.859C62.8977 83.859 62.3012 83.859 60.6393 83.0377L57.2042 81.0569C56.3553 80.5641 55.8308 79.6476 55.8308 78.6621V63.5184C55.8308 62.5329 56.3553 61.6164 57.2042 61.1269L70.299 53.5452C71.1283 53.0754 72.2296 53.0754 73.0524 53.5452L86.1472 61.1269C86.9961 61.6196 87.5238 62.5361 87.5238 63.5184V78.6621C87.5238 79.6476 86.9961 80.5608 86.1472 81.0569L73.0524 88.632C72.6328 88.8751 72.1575 89 71.6724 89H71.6691Z" fill="#D7DBE2"/>
<path d="M75.7142 78.5637C69.9846 78.5637 68.7849 75.9292 68.7849 73.7151C68.7849 73.5048 68.9521 73.3373 69.1619 73.3373H70.8532C71.0433 73.3373 71.2006 73.472 71.2301 73.6592C71.4858 75.3871 72.2463 76.2577 75.7142 76.2577C78.4741 76.2577 79.6475 75.6335 79.6475 74.1651C79.6475 73.3209 79.3132 72.6934 75.0258 72.2697C71.4432 71.9149 69.2274 71.1199 69.2274 68.2489C69.2274 65.6012 71.453 64.0211 75.1897 64.0211C79.3853 64.0211 81.4602 65.4796 81.7224 68.6102C81.7322 68.7186 81.6929 68.8204 81.6208 68.9026C81.5487 68.9781 81.4503 69.0241 81.3422 69.0241H79.6443C79.4673 69.0241 79.3132 68.8993 79.2772 68.7285C78.8707 66.9119 77.8775 66.3304 75.1865 66.3304C72.1742 66.3304 71.8234 67.3816 71.8234 68.17C71.8234 69.126 72.2364 69.4019 76.3042 69.9406C80.3293 70.4728 82.2403 71.2283 82.2403 74.0633C82.2403 76.8982 79.8606 78.5604 75.7109 78.5604L75.7142 78.5637Z" fill="#D7DBE2"/>
<path d="M94.5939 62.6806C94.5939 64.0734 93.4598 65.21 92.07 65.21C90.6803 65.21 89.5461 64.0866 89.5461 62.6806C89.5461 61.2746 90.7229 60.1512 92.07 60.1512C93.4172 60.1512 94.5939 61.2484 94.5939 62.6806ZM89.9559 62.674C89.9559 63.8533 90.9031 64.8027 92.0668 64.8027C93.2304 64.8027 94.1908 63.8336 94.1908 62.674C94.1908 61.5144 93.2304 60.5585 92.0668 60.5585C90.9031 60.5585 89.9559 61.4816 89.9559 62.674ZM91.1228 61.2615H92.0995C92.4339 61.2615 93.0894 61.2615 93.0894 62.0105C93.0894 62.5328 92.7551 62.6379 92.5552 62.7069C92.9419 62.7332 92.9682 62.9894 93.0239 63.3507C93.0501 63.5774 93.0927 63.965 93.1714 64.0997H92.5715C92.5584 63.965 92.4634 63.2423 92.4634 63.2029C92.424 63.0419 92.3683 62.9631 92.1684 62.9631H91.6734V64.0997H91.126V61.2615H91.1228ZM91.657 62.5065H92.0963C92.4568 62.5065 92.5224 62.2536 92.5224 62.1057C92.5224 61.7181 92.2536 61.7181 92.1094 61.7181H91.657V62.5065Z" fill="#D7DBE2"/>
<path fill-rule="evenodd" clip-rule="evenodd" d="M31.1192 29.7455C31.1192 29.1411 30.8012 28.5859 30.2801 28.2837L16.3986 20.2749C16.1626 20.137 15.9004 20.0647 15.6349 20.0548H15.4906C15.2251 20.0647 14.9629 20.137 14.7236 20.2749L0.838872 28.2837C0.32098 28.5827 -0.000244141 29.1378 -0.000244141 29.7455L0.0292561 51.3082C0.0292561 51.6071 0.183313 51.8863 0.448814 52.0341C0.707761 52.1885 1.02571 52.1885 1.28138 52.0341L9.5316 47.3005C10.0528 46.9884 10.3707 46.4431 10.3707 45.8419V35.7702C10.3707 35.169 10.6887 34.6139 11.2066 34.3149L14.7204 32.2881C14.9826 32.137 15.2677 32.0614 15.5595 32.0614C15.8512 32.0614 16.1396 32.137 16.392 32.2881L19.9026 34.3149C20.4237 34.6139 20.7417 35.169 20.7417 35.7702V45.8419C20.7417 46.4398 21.0629 46.9917 21.5808 47.3005L29.8277 52.0341C30.0867 52.1885 30.4079 52.1885 30.6668 52.0341C30.9225 51.8863 31.0831 51.6071 31.0831 51.3082L31.1093 29.7455H31.1192Z" fill="#D7DBE2"/>
<path fill-rule="evenodd" clip-rule="evenodd" d="M97.9177 0.10508C97.6587 -0.0394593 97.3408 -0.0361743 97.0851 0.114935C96.8295 0.266044 96.6721 0.541982 96.6721 0.840916V22.1933C96.6721 22.4035 96.5607 22.5974 96.3804 22.7025C96.2001 22.8076 95.9739 22.8076 95.7937 22.7025L92.3159 20.6953C91.798 20.3964 91.1589 20.3964 90.641 20.6953L76.7529 28.7271C76.235 29.0261 75.9138 29.5812 75.9138 30.1824V46.2525C75.9138 46.8537 76.235 47.4088 76.7529 47.7078L90.641 55.7461C91.1589 56.045 91.798 56.045 92.3192 55.7461L106.211 47.7078C106.728 47.4055 107.05 46.8537 107.05 46.2525V6.19544C107.05 5.58771 106.722 5.02598 106.191 4.72705L97.9177 0.10508ZM96.6295 40.9703C96.6295 41.1214 96.5508 41.2593 96.4197 41.3349L91.6505 44.091C91.5227 44.1665 91.3621 44.1665 91.231 44.091L86.4618 41.3349C86.3307 41.2593 86.252 41.1214 86.252 40.9703V35.4515C86.252 35.3004 86.3307 35.1624 86.4618 35.0869L91.231 32.3275C91.3621 32.2519 91.5194 32.2519 91.6505 32.3275L96.4197 35.0869C96.5476 35.1624 96.6295 35.3004 96.6295 35.4515V40.9703Z" fill="#D7DBE2"/>
<path fill-rule="evenodd" clip-rule="evenodd" d="M144.167 35.3101C144.685 35.0079 145.003 34.456 145.003 33.8582V29.9655C145.003 29.3676 144.685 28.8124 144.167 28.5102L130.368 20.4817C129.85 20.1795 129.207 20.1795 128.686 20.4817L114.802 28.5135C114.284 28.8124 113.962 29.3676 113.962 29.9688V46.0323C113.962 46.6368 114.287 47.1952 114.808 47.4941L128.604 55.3748C129.112 55.6672 129.735 55.6705 130.25 55.3847L138.595 50.7364C138.861 50.5886 139.024 50.3094 139.028 50.0072C139.028 49.7049 138.87 49.4224 138.608 49.2713L124.635 41.2362C124.373 41.0851 124.212 40.8092 124.212 40.507V35.4711C124.212 35.1722 124.373 34.8929 124.632 34.7418L128.981 32.2288C129.24 32.0777 129.558 32.0777 129.817 32.2288L134.167 34.7418C134.426 34.8929 134.586 35.1689 134.586 35.4711V39.4328C134.586 39.735 134.747 40.011 135.006 40.1621C135.265 40.3132 135.586 40.3099 135.845 40.1621L144.161 35.3167L144.167 35.3101Z" fill="#D7DBE2"/>
<path fill-rule="evenodd" clip-rule="evenodd" d="M129.322 34.5577C129.421 34.4986 129.545 34.4986 129.643 34.5577L132.308 36.0983C132.407 36.1575 132.469 36.2626 132.469 36.3776V39.4622C132.469 39.5771 132.407 39.6823 132.308 39.7414L129.643 41.282C129.545 41.3412 129.421 41.3412 129.322 41.282L126.661 39.7414C126.562 39.6823 126.5 39.5771 126.5 39.4622V36.3776C126.5 36.2626 126.562 36.1575 126.661 36.0983L129.322 34.5577Z" fill="#D7DBE2"/>
<path fill-rule="evenodd" clip-rule="evenodd" d="M52.5923 20.646C53.1069 20.3471 53.7428 20.3471 54.2541 20.646L68.0307 28.6121C68.5453 28.9111 68.8633 29.4597 68.8633 30.0575V46.0061C68.8633 46.6007 68.5453 47.1526 68.0307 47.4515L54.2541 55.4241C53.7395 55.7231 53.1036 55.7231 52.589 55.4241L38.8157 47.4515C38.3011 47.1526 37.9832 46.604 37.9832 46.0061V30.0575C37.9832 29.4629 38.3011 28.9111 38.8157 28.6121L52.589 20.646H52.5923Z" fill="#D7DBE2"/>
<path fill-rule="evenodd" clip-rule="evenodd" d="M54.2573 20.646C53.7427 20.347 53.1068 20.347 52.5955 20.646L38.8189 28.612C38.3043 28.911 37.9863 29.4596 37.9863 30.0574V46.006C37.9863 46.6006 38.3043 47.1525 38.8189 47.4514L52.5955 55.4241C53.1101 55.723 53.746 55.723 54.2606 55.4241L68.0339 47.4514C68.5485 47.1525 68.8665 46.6039 68.8665 46.006V30.0574C68.8665 29.4628 68.5485 28.911 68.0339 28.612L54.2606 20.646H54.2573Z" fill="#D7DBE2"/>
<path d="M52.5759 20.6461L38.7862 28.6122C38.2716 28.9111 37.9209 29.4597 37.9209 30.0576V46.0062C37.9209 46.3938 38.0651 46.7584 38.3077 47.0508L53.8117 20.472C53.3987 20.3702 52.9529 20.426 52.5759 20.6461Z" fill="#D7DBE2"/>
<path d="M53.9001 55.5655C54.0116 55.5294 54.1198 55.4834 54.2246 55.4243L67.9685 47.4516C68.4831 47.1527 68.7355 46.6041 68.7355 46.0062V30.0576C68.7355 29.6569 68.6175 29.2791 68.3847 28.9835L53.9001 55.5622V55.5655Z" fill="#D7DBE2"/>
<path opacity="0.66" d="M67.9619 28.6154L54.2476 20.6493C54.1099 20.5705 53.9624 20.5146 53.8116 20.4752L38.3076 47.054C38.4387 47.2117 38.5961 47.3496 38.7763 47.4515L52.5726 55.4241C52.9823 55.6606 53.4609 55.7066 53.8968 55.5654L68.3814 28.9866C68.2667 28.842 68.129 28.7139 67.9586 28.6154H67.9619Z" fill="#D7DBE2"/>
<path d="M38.9436 28.5236L38.7862 28.6123C38.2716 28.9112 37.9209 29.4598 37.9209 30.0576V46.0062C37.9209 46.6008 38.2618 47.1527 38.7764 47.4516L52.5727 55.4243C52.943 55.6378 53.3692 55.6969 53.7723 55.6017L38.9403 28.5236H38.9436Z" fill="#D7DBE2"/>
<path d="M68.7323 30.0576C68.7323 29.4597 68.4767 28.9111 67.9621 28.6122L54.2478 20.6461C54.1265 20.5771 53.9986 20.5246 53.8643 20.4851L68.7323 45.9405V30.0543V30.0576Z" fill="#D7DBE2"/>
<path d="M54.2246 55.4242L67.9684 47.4516C68.483 47.1527 68.7354 46.6041 68.7354 46.0062V45.9438L53.8673 20.4885C53.4379 20.3669 52.9725 20.4195 52.5791 20.6494L38.9468 28.5268L53.7788 55.6049C53.9329 55.5688 54.0837 55.5096 54.2279 55.4275L54.2246 55.4242Z" fill="#D7DBE2"/>
</g>
<defs>
<clipPath id="clip0_35_2618">
<rect width="145" height="89" fill="white"/>
</clipPath>
</defs>
</svg>
