<svg width="101" height="36" viewBox="0 0 101 36" fill="none" xmlns="http://www.w3.org/2000/svg">
<path d="M25.4702 15.248C26.0822 14.296 27.1589 13.82 28.7002 13.82V15.843C28.5189 15.809 28.3546 15.792 28.2072 15.792C27.3799 15.792 26.7339 16.0357 26.2692 16.523C25.8046 16.999 25.5722 17.6903 25.5722 18.597V23H23.4472V13.922H25.4702V15.248ZM38.9539 18.512C38.9539 18.6593 38.9425 18.869 38.9199 19.141H31.7969C31.9215 19.8097 32.2445 20.3423 32.7659 20.739C33.2985 21.1243 33.9559 21.317 34.7379 21.317C35.7352 21.317 36.5569 20.9883 37.2029 20.331L38.3419 21.64C37.9339 22.1273 37.4182 22.4957 36.7949 22.745C36.1715 22.9943 35.4689 23.119 34.6869 23.119C33.6895 23.119 32.8112 22.9207 32.0519 22.524C31.2925 22.1273 30.7032 21.5777 30.2839 20.875C29.8759 20.161 29.6719 19.3563 29.6719 18.461C29.6719 17.577 29.8702 16.7837 30.2669 16.081C30.6749 15.367 31.2359 14.8117 31.9499 14.415C32.6639 14.0183 33.4685 13.82 34.3639 13.82C35.2479 13.82 36.0355 14.0183 36.7269 14.415C37.4295 14.8003 37.9735 15.35 38.3589 16.064C38.7555 16.7667 38.9539 17.5827 38.9539 18.512ZM34.3639 15.52C33.6839 15.52 33.1059 15.724 32.6299 16.132C32.1652 16.5287 31.8819 17.0613 31.7799 17.73H36.9309C36.8402 17.0727 36.5625 16.54 36.0979 16.132C35.6332 15.724 35.0552 15.52 34.3639 15.52ZM45.1601 23.119C44.2194 23.119 43.3751 22.9207 42.6271 22.524C41.8791 22.1273 41.2954 21.5777 40.8761 20.875C40.4567 20.161 40.2471 19.3563 40.2471 18.461C40.2471 17.5657 40.4567 16.7667 40.8761 16.064C41.2954 15.3613 41.8734 14.8117 42.6101 14.415C43.3581 14.0183 44.2081 13.82 45.1601 13.82C46.0554 13.82 46.8374 14.0013 47.5061 14.364C48.1861 14.7267 48.6961 15.248 49.0361 15.928L47.4041 16.88C47.1434 16.4607 46.8147 16.149 46.4181 15.945C46.0327 15.7297 45.6077 15.622 45.1431 15.622C44.3497 15.622 43.6924 15.8827 43.1711 16.404C42.6497 16.914 42.3891 17.5997 42.3891 18.461C42.3891 19.3223 42.6441 20.0137 43.1541 20.535C43.6754 21.045 44.3384 21.3 45.1431 21.3C45.6077 21.3 46.0327 21.198 46.4181 20.994C46.8147 20.7787 47.1434 20.4613 47.4041 20.042L49.0361 20.994C48.6847 21.674 48.1691 22.201 47.4891 22.575C46.8204 22.9377 46.0441 23.119 45.1601 23.119ZM54.8202 23.119C53.9022 23.119 53.0749 22.9207 52.3382 22.524C51.6015 22.1273 51.0235 21.5777 50.6042 20.875C50.1962 20.161 49.9922 19.3563 49.9922 18.461C49.9922 17.5657 50.1962 16.7667 50.6042 16.064C51.0235 15.3613 51.6015 14.8117 52.3382 14.415C53.0749 14.0183 53.9022 13.82 54.8202 13.82C55.7495 13.82 56.5825 14.0183 57.3192 14.415C58.0559 14.8117 58.6282 15.3613 59.0362 16.064C59.4555 16.7667 59.6652 17.5657 59.6652 18.461C59.6652 19.3563 59.4555 20.161 59.0362 20.875C58.6282 21.5777 58.0559 22.1273 57.3192 22.524C56.5825 22.9207 55.7495 23.119 54.8202 23.119ZM54.8202 21.3C55.6022 21.3 56.2482 21.0393 56.7582 20.518C57.2682 19.9967 57.5232 19.311 57.5232 18.461C57.5232 17.611 57.2682 16.9253 56.7582 16.404C56.2482 15.8827 55.6022 15.622 54.8202 15.622C54.0382 15.622 53.3922 15.8827 52.8822 16.404C52.3835 16.9253 52.1342 17.611 52.1342 18.461C52.1342 19.311 52.3835 19.9967 52.8822 20.518C53.3922 21.0393 54.0382 21.3 54.8202 21.3ZM63.7202 15.248C64.3322 14.296 65.4089 13.82 66.9502 13.82V15.843C66.7689 15.809 66.6046 15.792 66.4572 15.792C65.6299 15.792 64.9839 16.0357 64.5192 16.523C64.0546 16.999 63.8222 17.6903 63.8222 18.597V23H61.6972V13.922H63.7202V15.248ZM77.5609 10.386V23H75.5209V21.827C75.1695 22.2577 74.7332 22.5807 74.2119 22.796C73.7019 23.0113 73.1352 23.119 72.5119 23.119C71.6392 23.119 70.8515 22.9263 70.1489 22.541C69.4575 22.1557 68.9135 21.6117 68.5169 20.909C68.1202 20.195 67.9219 19.379 67.9219 18.461C67.9219 17.543 68.1202 16.7327 68.5169 16.03C68.9135 15.3273 69.4575 14.7833 70.1489 14.398C70.8515 14.0127 71.6392 13.82 72.5119 13.82C73.1125 13.82 73.6622 13.922 74.1609 14.126C74.6595 14.33 75.0845 14.636 75.4359 15.044V10.386H77.5609ZM72.7669 21.3C73.2769 21.3 73.7359 21.1867 74.1439 20.96C74.5519 20.722 74.8749 20.3877 75.1129 19.957C75.3509 19.5263 75.4699 19.0277 75.4699 18.461C75.4699 17.8943 75.3509 17.3957 75.1129 16.965C74.8749 16.5343 74.5519 16.2057 74.1439 15.979C73.7359 15.741 73.2769 15.622 72.7669 15.622C72.2569 15.622 71.7979 15.741 71.3899 15.979C70.9819 16.2057 70.6589 16.5343 70.4209 16.965C70.1829 17.3957 70.0639 17.8943 70.0639 18.461C70.0639 19.0277 70.1829 19.5263 70.4209 19.957C70.6589 20.3877 70.9819 20.722 71.3899 20.96C71.7979 21.1867 72.2569 21.3 72.7669 21.3Z" fill="#8E97A6"/>
<path d="M18 2H83V-2H18V2ZM83 34H18V38H83V34ZM18 34C9.16344 34 2 26.8366 2 18H-2C-2 29.0457 6.95431 38 18 38V34ZM99 18C99 26.8366 91.8366 34 83 34V38C94.0457 38 103 29.0457 103 18H99ZM83 2C91.8366 2 99 9.16344 99 18H103C103 6.95431 94.0457 -2 83 -2V2ZM18 -2C6.95431 -2 -2 6.95431 -2 18H2C2 9.16344 9.16344 2 18 2V-2Z" fill="#8E97A6"/>
</svg>
