<svg width="219" height="55" viewBox="0 0 219 55" fill="none" xmlns="http://www.w3.org/2000/svg">
<path d="M51.2229 3.61095C50.6054 4.67406 50.181 5.44013 49.7218 6.18431C48.7781 7.71436 47.6254 7.89884 46.2636 6.73775C40.0186 1.40967 32.7126 -0.713428 24.5864 0.20898C6.58599 2.25391 -4.68488 20.7771 1.89586 37.3711C3.33679 41.0044 5.45542 44.2313 8.39743 47.0298C8.81229 44.8129 9.56284 43.9499 11.0196 44.003C12.3085 44.0499 13.3346 44.5971 13.4422 45.9573C13.4993 46.6702 13.3251 47.5551 12.9039 48.1054C12.4985 48.6401 11.6435 48.8465 10.8011 49.2967C12.3972 50.2379 13.8286 51.376 15.4595 51.9826C18.5884 53.1458 21.8313 54.0119 25.0266 55H31.0342C33.1655 54.4591 35.3633 54.0964 37.4154 53.3459C48.7338 49.1967 55.78 39.2941 56.0651 27.3903C56.2076 21.4619 54.8268 15.7867 53.2307 10.146C52.6353 8.04163 51.945 5.9623 51.2198 3.61407L51.2229 3.61095ZM55.0485 27.6717C54.8142 33.1624 53.3416 38.1965 48.9618 42.0019C46.5581 44.0906 43.6668 45.4539 40.5696 45.6602C33.0388 46.1605 25.4858 46.2793 17.9392 46.5514C17.9044 46.3544 17.8664 46.1605 17.8315 45.9635C18.3636 45.7259 18.8829 45.4507 19.4308 45.26C23.3419 43.903 27.4335 42.9149 31.1387 41.1483C38.6568 37.5649 44.0531 31.8304 47.1947 24.1447C47.2865 23.9227 47.3435 23.6882 47.4195 23.4599C43.3089 30.1075 37.7131 35.1979 30.4198 37.9933C25.1121 40.0257 19.434 41.1264 13.8951 42.5522C13.3504 42.6929 12.5429 42.3615 12.0267 42.0081C9.43933 40.254 8.34676 37.6525 8.20425 34.6883C7.82423 26.84 12.9514 20.6552 21.1504 19.1981C23.9341 18.704 26.8032 18.6728 29.6281 18.3976C39.3567 17.4502 45.2534 14.0044 50.8176 5.98419C50.9854 6.18431 51.1976 6.33752 51.2641 6.53451C53.4904 13.4104 55.3589 20.3612 55.0485 27.6686V27.6717Z" fill="#D7DBE2"/>
<path d="M208.562 16.3684C208.249 14.8238 206.925 13.7606 205.433 13.8513C203.913 13.942 202.776 15.102 202.65 16.7155C202.605 17.2627 202.593 17.813 202.545 18.7792C201.915 18.1069 201.605 17.7661 201.285 17.4346C196.756 12.685 189.985 12.4443 185.093 16.8624C180.263 21.2243 179.231 29.6073 182.651 35.3262C186.673 42.052 196.335 43.631 201.557 37.615C201.763 37.3774 202.08 37.2304 202.415 36.9897C202.662 40.3041 200.499 43.1745 197.206 43.9312C193.257 44.838 189.479 44.2251 185.869 42.4678C184.231 41.6705 182.809 42.0676 182.148 43.4809C181.549 44.7598 182.103 45.9542 183.664 46.714C187.332 48.4932 191.23 49.2655 195.293 49.0623C204.031 48.6214 208.28 44.5722 208.566 36.0985C208.778 29.7355 208.623 23.3568 208.626 16.9875C208.626 16.7811 208.604 16.5716 208.566 16.3715L208.562 16.3684ZM192.902 36.1361C189.216 35.4075 186.809 32.1119 186.724 27.6812C186.606 21.6214 191.426 17.5816 196.911 19.145C200.43 20.1487 202.745 23.5288 202.726 27.6343C202.697 33.3657 198.273 37.1961 192.905 36.1361H192.902Z" fill="#D7DBE2"/>
<path d="M102.143 17.716C101.89 18.0193 101.798 18.4508 101.63 18.8229C101.443 18.6822 101.253 18.5415 101.066 18.4039C101.035 17.8067 101.035 17.2063 100.965 16.6122C100.705 14.4328 98.3523 13.204 96.525 14.3109C95.3723 15.0082 95.0683 16.1213 95.0714 17.3939C95.0841 26.8244 95.0778 36.2548 95.0809 45.6853C95.0809 46.048 95.0809 46.4169 95.1474 46.7703C95.4103 48.1617 96.6422 49.2061 98.0071 49.2311C99.4037 49.2561 100.617 48.293 100.902 46.8453C101.019 46.2418 100.993 45.6071 100.993 44.988C101.003 42.3677 100.997 39.7475 100.997 37.1272L101.396 37.0053C101.655 37.2429 101.94 37.4618 102.168 37.7244C106.903 43.1119 114.887 42.1301 119.152 37.7588C123.576 33.2281 124.273 24.7638 120.619 19.2669C116.625 13.2603 107.441 11.3717 102.146 17.7191L102.143 17.716ZM116.967 27.7843C116.828 33.6158 112.543 37.2898 107.258 36.111C102.865 35.1323 100.316 30.7704 101.155 25.6706C101.864 21.3618 105.706 18.4695 110.082 18.9448C114.149 19.3857 117.078 23.1473 116.967 27.7843Z" fill="#D7DBE2"/>
<path d="M177.777 22.4221C177.505 18.7293 175.789 15.6994 171.976 14.4925C168.004 13.2324 164.277 13.717 161.189 16.7969C160.841 17.144 160.461 17.4567 160.008 17.8663C159.856 17.5317 159.771 17.4098 159.745 17.2753C159.318 14.9771 158.232 13.8452 156.54 13.9547C154.789 14.0672 153.741 15.4868 153.738 17.7756C153.735 21.1932 153.738 24.6139 153.738 28.0315C153.738 31.3991 153.75 34.7667 153.731 38.1311C153.725 39.4569 154.263 40.5919 155.476 41.0015C156.309 41.283 157.481 41.1829 158.289 40.8077C159.552 40.2198 159.736 38.8909 159.733 37.5902C159.723 33.6004 159.695 29.6137 159.745 25.6239C159.796 21.731 162.124 19.3015 165.759 19.2296C169.667 19.1545 171.681 21.0963 171.985 25.2549C172.036 25.9241 172.026 26.5995 172.026 27.2749C172.03 30.902 172.011 34.5259 172.039 38.153C172.052 39.9697 173.356 41.3048 175.019 41.308C176.637 41.3111 177.872 40.0666 177.939 38.2593C177.996 36.7084 177.967 35.1513 177.952 33.5973C177.917 29.8701 178.05 26.1304 177.774 22.4189L177.777 22.4221Z" fill="#D7DBE2"/>
<path d="M88.2565 26.9681C86.6477 26.127 84.8426 25.6486 83.1325 24.9889C81.8183 24.4823 80.3932 24.1228 79.2468 23.3598C78.5564 22.9002 77.9008 21.7651 77.9737 20.9991C78.0465 20.2268 78.8984 19.173 79.6584 18.8979C80.7795 18.4914 82.1698 18.4132 83.351 18.6477C85.134 19.0042 86.8314 19.764 88.5668 20.3393C89.8304 20.7552 90.8691 20.4456 91.5468 19.2981C92.1929 18.1975 91.892 16.8967 90.676 16.2213C89.4504 15.5397 88.1393 14.9393 86.7902 14.5672C82.9266 13.5072 79.0947 13.2915 75.5732 15.6898C71.0509 18.7665 71.3771 25.3703 76.2224 27.8968C77.6507 28.641 79.2404 29.085 80.7605 29.6478C82.3313 30.2294 83.9242 30.7485 85.4728 31.3801C86.5495 31.8178 87.2779 32.759 86.9232 33.8409C86.6192 34.7633 85.8433 35.6075 85.0896 36.2829C84.6969 36.6362 83.8989 36.605 83.2782 36.6519C80.333 36.8707 77.6823 35.9733 75.1837 34.5194C73.6066 33.6001 72.2005 33.7658 71.4436 34.9352C70.6076 36.2297 71.0287 37.4617 72.7167 38.5154C75.722 40.3947 79.0156 41.3202 82.6005 41.4828C83.8387 41.2733 85.096 41.1388 86.3089 40.8355C89.6372 40.0069 91.9522 37.4492 92.3797 34.2442C92.8136 30.9736 91.6419 28.7379 88.2565 26.965V26.9681Z" fill="#D7DBE2"/>
<path d="M138.065 13.942C136.124 14.1859 134.458 15.027 133.087 16.406C132.738 16.7562 132.4 17.1189 131.776 17.7661C131.659 16.9375 131.643 16.5748 131.554 16.2309C131.203 14.877 129.907 13.8639 128.561 13.9139C127.025 13.9702 126.18 14.8957 125.778 16.2496C125.632 16.7374 125.613 17.2752 125.613 17.788C125.604 24.4731 125.588 31.1551 125.616 37.8402C125.626 39.9383 126.908 41.3391 128.631 41.311C130.363 41.2828 131.576 39.8507 131.589 37.7777C131.605 34.876 131.427 31.9618 131.665 29.0789C131.814 27.2747 132.333 25.408 133.112 23.7665C134.271 21.3213 136.536 20.1237 139.183 19.514C140.956 19.1075 141.812 17.7317 141.485 16.1808C141.146 14.583 139.88 13.7138 138.065 13.942Z" fill="#D7DBE2"/>
<path d="M150.264 17.2C150.241 15.2739 148.892 13.8981 147.204 13.9481C145.548 13.995 144.383 15.3176 144.38 17.2281C144.367 24.1634 144.37 31.0986 144.38 38.0339C144.38 40.0538 145.535 41.3233 147.322 41.3389C149.003 41.3546 150.26 39.96 150.27 38.0057C150.286 34.5913 150.273 31.1737 150.273 27.7561C150.273 24.2353 150.302 20.7176 150.26 17.1968L150.264 17.2Z" fill="#D7DBE2"/>
<path d="M147.432 3.4139C145.865 3.38888 144.389 4.81783 144.38 6.36873C144.37 7.98529 145.748 9.32356 147.407 9.30793C148.911 9.29229 150.295 7.89461 150.305 6.37811C150.314 4.87412 148.924 3.44204 147.429 3.41702L147.432 3.4139Z" fill="#D7DBE2"/>
<path d="M215.96 13.7261C214.285 13.7261 212.92 15.0737 212.92 16.7278C212.92 18.3819 214.285 19.7233 215.96 19.7233C217.635 19.7233 219 18.3788 219 16.7278C219 15.0769 217.635 13.7261 215.96 13.7261ZM215.96 19.2418C214.551 19.2418 213.407 18.113 213.407 16.7278C213.407 15.3426 214.554 14.2076 215.96 14.2076C217.366 14.2076 218.512 15.3395 218.512 16.7278C218.512 18.1161 217.366 19.2418 215.96 19.2418Z" fill="#D7DBE2"/>
<path d="M217.325 17.8286C217.325 17.7755 217.325 17.7254 217.325 17.6754C217.325 17.4878 217.249 17.1814 217.129 17.0125C217.062 16.925 216.967 16.8499 216.844 16.7874C217.202 16.6185 217.411 16.284 217.411 15.865C217.411 15.3678 217.142 14.7769 215.862 14.7769H214.713V18.626H215.257V17.0094H215.982C216.549 17.0094 216.812 17.2689 216.812 17.8286C216.812 17.8912 216.812 17.9537 216.806 18.0131C216.799 18.2038 216.79 18.3883 216.866 18.5697L216.885 18.6197H217.493L217.427 18.504C217.309 18.3008 217.316 18.0631 217.322 17.8317L217.325 17.8286ZM216.853 15.8931C216.853 16.3152 216.546 16.5279 215.938 16.5279H215.254V15.2865H215.91C216.4 15.2865 216.853 15.3584 216.853 15.8931Z" fill="#D7DBE2"/>
</svg>
